<svg version="1.2" xmlns="http://www.w3.org/2000/svg" viewBox="0 0 1027 1027" width="1200" height="1200">
	<title>ico</title>
	<style>
		.s0 { fill: #5fdd6a;stroke: #5fdd6a;stroke-linecap: square;stroke-miterlimit:12.45;stroke-width: 42.5 } 
		.s1 { fill: #5fdd6a;stroke: #5fdd6a;stroke-width: .7 } 
	</style>
	<g>
		<path class="s0" d="m439.6 161.2c-104.4 1.2-116.1 2-154.9 11.8-141.5 35.5-220.6 146.3-220.6 309.1 0 97 32.8 179.5 97.7 245.7 57.7 58.6 135 100.3 227.6 123 45 10.9 80.6 15.2 125.3 15.2 40.3 0 72.8-4.1 86.9-11.4 7.8-3.8 15.4-12.8 17.5-20.2 1-3.4 1.8-16.2 1.8-28.8v-22.6l25.5-1c52.3-1.9 99.8-13.6 146.9-36.4 96.6-46.4 155.5-128.8 167.6-234.3 2.8-25.2 1.2-76.7-3.2-98.7-14.4-70.9-53.6-130.9-114.9-176.2-56.7-41.8-130.8-67.4-217.1-75.3-19.2-1.6-26.5-1.6-186.1 0.1zm208.1 73.4c130.3 20.1 217.3 88.5 238.8 188.2 4.8 22.4 5.3 72.6 1 96.4-12 65-44.4 113.8-98.5 148.8-50.8 32.8-116 48.4-183.2 43.5-29-2-34.8-1.1-44.2 7.1-11 9.7-11.9 13.5-11.9 46.9v29.5l-18.5 1.2c-21.7 1.4-59.6-1.2-87.6-5.8-77.2-13-150.7-44.2-203.3-86.2-16.8-13.5-42.2-40.2-54.3-57.2-20.3-28.3-36.9-66.8-44.1-101.5-10.5-51.5-7.3-116.1 8.3-164.4 23.1-71.5 71.5-117.4 145.5-138 34.8-9.6 43.5-10.2 147.9-11.4 138.3-1.6 178.2-1.1 204.1 2.9z"/>
		<path class="s1" d="m296.3 388.8c-8 3.8-14.4 10.4-17.9 18.8-2.5 5.4-2.9 13.5-3.6 56.8-0.8 55.4-0.3 59 8.3 68.7 18.1 20.4 53.7 13.1 61-13 1.1-4.1 1.9-25.2 2.1-58.9l0.3-52.2-4.5-6.7c-7-10.5-15.7-15.4-28.5-16.1-7.9-0.3-12.3 0.3-17.2 2.6z"/>
		<path class="s1" d="m715.6 392.2c-11.4 2.8-19 9-24.5 19.4-2.6 5-3.1 12-4.2 55.4-1.6 59.2-1.1 62 10.1 73.2 8.9 8.8 17.6 11.9 29.9 10.5 13.6-1.7 26.2-12.9 29.8-26.5 0.8-3.3 1.8-28.6 2.1-56.4 0.5-49.1 0.3-50.8-3.1-57-6-11.3-15.2-17.5-28-19-4-0.4-9.4-0.3-12.1 0.4z"/>
	</g>
</svg>