<?xml version="1.0" standalone="no"?>
<!DOCTYPE svg PUBLIC "-//W3C//DTD SVG 20010904//EN"
 "http://www.w3.org/TR/2001/REC-SVG-20010904/DTD/svg10.dtd">
<svg version="1.0" xmlns="http://www.w3.org/2000/svg"
 width="1200.000000pt" height="1200.000000pt" viewBox="0 0 1200.000000 1200.000000"
 preserveAspectRatio="xMidYMid meet">

<g transform="translate(0.000000,1200.000000) scale(0.100000,-0.100000)"
fill="#000000" stroke="none">
<path d="M5610 10369 c-862 -9 -1547 -25 -1720 -40 -373 -32 -907 -168 -1265
-324 -686 -298 -1198 -752 -1582 -1400 -370 -625 -560 -1451 -540 -2340 15
-620 121 -1134 343 -1660 393 -927 1196 -1747 2219 -2265 193 -98 239 -119
425 -197 426 -180 961 -334 1466 -422 352 -61 634 -83 1074 -83 439 0 674 22
910 84 209 54 351 147 449 293 87 130 111 234 111 477 l0 117 53 5 c28 3 99 8
157 11 353 19 754 97 1108 215 1201 401 2043 1176 2445 2255 79 212 153 506
195 780 25 160 26 191 27 545 0 490 -18 683 -91 974 -68 273 -145 477 -274
731 -186 368 -414 674 -721 970 -770 742 -1861 1182 -3164 1275 -154 11 -534
11 -1625 -1z m1615 -1329 c255 -14 549 -62 820 -136 1020 -277 1698 -824 1983
-1600 42 -113 89 -294 102 -394 30 -216 27 -738 -4 -920 -176 -1022 -923
-1750 -2041 -1989 -320 -68 -519 -81 -1055 -66 -341 9 -367 6 -485 -51 -192
-93 -328 -270 -354 -461 -5 -37 -13 -161 -17 -275 l-7 -208 -112 0 c-139 0
-509 25 -670 46 -518 66 -1184 269 -1666 509 -408 203 -702 405 -963 663 -305
300 -442 482 -596 792 -227 454 -321 870 -321 1415 1 776 173 1374 527 1820
345 435 837 701 1504 811 46 7 174 19 285 25 429 23 2717 37 3070 19z"/>
<path d="M3505 7474 c-111 -36 -215 -133 -255 -240 -30 -80 -40 -267 -42 -784
-2 -480 2 -523 50 -613 58 -107 193 -193 321 -204 171 -14 347 79 417 223 37
76 42 164 50 805 l7 556 -38 57 c-56 84 -122 146 -193 179 -53 25 -78 30 -165
33 -75 3 -115 0 -152 -12z"/>
<path d="M8362 7419 c-109 -21 -239 -127 -288 -233 -33 -73 -42 -206 -50 -776
-7 -471 -3 -543 37 -622 30 -59 134 -154 208 -191 61 -30 73 -32 166 -32 97 0
104 2 177 38 89 44 168 122 206 206 36 79 44 219 46 811 l1 515 -32 60 c-92
173 -279 262 -471 224z"/>
</g>
</svg>
